<svg xmlns="http://www.w3.org/2000/svg" viewBox="0 0 800 500" width="800" height="500">
  <defs>
    <linearGradient id="bg-hw" x1="0%" y1="0%" x2="100%" y2="100%">
      <stop offset="0%" stop-color="#f8fafc"/>
      <stop offset="100%" stop-color="#e2e8f0"/>
    </linearGradient>
    <linearGradient id="h1" x1="0%" y1="0%" x2="100%" y2="100%">
      <stop offset="0%" stop-color="#34d399" stop-opacity="0.32"/>
      <stop offset="100%" stop-color="#10b981" stop-opacity="0.12"/>
    </linearGradient>
    <linearGradient id="h2" x1="100%" y1="0%" x2="0%" y2="100%">
      <stop offset="0%" stop-color="#60a5fa" stop-opacity="0.28"/>
      <stop offset="100%" stop-color="#3b82f6" stop-opacity="0.08"/>
    </linearGradient>
    <clipPath id="rounded">
      <rect width="800" height="500" rx="32"/>
    </clipPath>
  </defs>
  <rect width="800" height="500" fill="url(#bg-hw)"/>
  <g clip-path="url(#rounded)">
    <circle cx="700" cy="120" r="240" fill="url(#h1)"/>
    <circle cx="80" cy="420" r="260" fill="url(#h2)"/>
    <rect x="180" y="140" width="440" height="260" rx="24" fill="rgba(255,255,255,0.72)" stroke="rgba(255,255,255,0.9)" stroke-width="2"/>
    <path d="M220 360 L320 280 L400 310 L500 220 L580 250" fill="none" stroke="#34d399" stroke-width="4" stroke-linecap="round" stroke-linejoin="round" opacity="0.8"/>
    <circle cx="220" cy="360" r="8" fill="#10b981"/>
    <circle cx="320" cy="280" r="8" fill="#10b981"/>
    <circle cx="400" cy="310" r="8" fill="#10b981"/>
    <circle cx="500" cy="220" r="8" fill="#10b981"/>
    <circle cx="580" cy="250" r="8" fill="#10b981"/>
    <rect x="230" y="180" width="100" height="12" rx="6" fill="#e2e8f0"/>
    <rect x="230" y="204" width="140" height="12" rx="6" fill="#e2e8f0"/>
    <rect x="470" y="180" width="120" height="60" rx="12" fill="#bfdbfe"/>
  </g>
</svg>
